<svg xmlns="http://www.w3.org/2000/svg"  viewBox="0 0 64 64" width="64px" height="64px"><radialGradient id="2B1oqxdBx9fiuDMh_aivQa" cx="32.375" cy="424.431" r="49.78" gradientTransform="matrix(1 0 0 -1 0 460)" gradientUnits="userSpaceOnUse"></radialGradient><path fill="url(#2B1oqxdBx9fiuDMh_aivQa)" d="M60,44H45l-2.6-1h6.012c1.138,0,2.202-0.721,2.497-1.821C51.355,39.516,50.096,38,48.5,38	c-0.828,0-1.5-0.672-1.5-1.5s0.672-1.5,1.5-1.5h2.912c1.139,0,2.202-0.721,2.497-1.821C54.355,31.516,53.096,29,51.5,29H51	c-1.105,0-2-0.895-2-2s0.895-2,2-2h9.412c1.139,0,2.202-0.721,2.497-1.821C63.355,21.516,62.096,20,60.5,20H59c-1.105,0-2-0.895-2-2	s0.895-2,2-2h2c1.848,0,3.319-1.693,2.94-3.605C63.657,10.972,62.32,10,60.869,10H50.5C49.672,10,49,9.328,49,8.5S49.672,7,50.5,7	h5.912c1.139,0,2.202-0.721,2.497-1.821C59.355,3.516,58.096,2,56.5,2H10.588C9.449,2,8.386,2.721,8.091,3.821	C7.645,5.484,8.904,7,10.5,7l0,0C11.881,7,13,8.119,13,9.5S11.881,12,10.5,12H9.588H7c-1.65,0-3,1.35-3,3s1.35,3,3,3h19	c0.352,0,0.685-0.073,1-0.185V29h-7.412c-1.139,0-2.202,1.721-2.497,2.821c-0.219,0.817-0.024,1.595,0.418,2.179H3.5	C2.119,34,1,35.119,1,36.5S2.119,39,3.5,39h1C5.881,39,7,40.119,7,41.5S5.881,44,4.5,44H4c-1.657,0-3,1.343-3,3s1.343,3,3,3h5.5	c1.381,0,2.5,1.119,2.5,2.5S10.881,55,9.5,55H8c-1.657,0-3,1.343-3,3s1.343,3,3,3h48c1.657,0,3-1.343,3-3s-1.343-3-3-3h-0.5	c-1.381,0-2.5-1.119-2.5-2.5s1.119-2.5,2.5-2.5H60c1.657,0,3-1.343,3-3S61.657,44,60,44z"/><linearGradient id="2B1oqxdBx9fiuDMh_aivQb" x1="32" x2="32" y1="404" y2="454" gradientTransform="matrix(1 0 0 -1 0 460)" gradientUnits="userSpaceOnUse"><stop offset="0" stop-color="#155cde"/><stop offset=".278" stop-color="#1f7fe5"/><stop offset=".569" stop-color="#279ceb"/><stop offset=".82" stop-color="#2cafef"/><stop offset="1" stop-color="#2eb5f0"/></linearGradient><path fill="url(#2B1oqxdBx9fiuDMh_aivQb)" d="M57,31c0,13.805-11.195,25-25,25S7,44.805,7,31S18.195,6,32,6S57,17.195,57,31z"/><path fill="#fff" d="M45.891,23.319c0.058-0.191,0.086-0.369,0.079-0.527C45.951,22.333,45.635,22,44.893,22h-3.637	c-0.837,0-1.224,0.507-1.449,1.015c0,0-2.067,4.255-4.45,7.06C34.584,30.887,34.192,31,33.774,31c-0.224,0-0.79-0.404-0.79-1.148	v-6.568c0-0.879-0.219-1.284-0.927-1.284h-5.45c-0.516,0-0.636,0.405-0.636,0.812c0,0.845,0.908,0.98,1.038,3.347v4.589	c0,1.115-0.551,1.252-0.969,1.252c-1.127,0-3.347-3.667-4.832-8.647C20.884,22.372,20.562,22,19.725,22h-3.598	C15.161,22,15,22.474,15,22.98c0,0.913,1.01,5.851,5.158,11.528C23.167,38.625,27.13,41,30.639,41c2.125,0,2.343-0.541,2.343-1.386	v-3.431C32.983,35.168,33.215,35,33.892,35c0.483,0,1.467-0.017,3.367,2.2c2.191,2.556,2.589,3.8,3.846,3.8h3.316	c0.77,0,1.532-0.323,1.55-0.95c0.004-0.16-0.019-0.338-0.071-0.537C45.653,38.783,44.206,37,42.8,35.3	c-0.779-0.941-1.548-1.873-1.901-2.38c-0.237-0.331-0.327-0.564-0.315-0.787c0.011-0.234,0.133-0.457,0.315-0.769	C40.866,31.364,45.473,25.347,45.891,23.319z"/></svg>